<!DOCTYPE svg PUBLIC "-//W3C//DTD SVG 1.1//EN" "http://www.w3.org/Graphics/SVG/1.1/DTD/svg11.dtd">
<!-- Uploaded to: SVG Repo, www.svgrepo.com, Transformed by: SVG Repo Mixer Tools -->
<svg width="800px" height="800px" viewBox="0 0 512 512" xmlns="http://www.w3.org/2000/svg" fill="#7f0020" stroke="#7f0020">
<g id="SVGRepo_bgCarrier" stroke-width="0"/>
<g id="SVGRepo_tracerCarrier" stroke-linecap="round" stroke-linejoin="round"/>
<g id="SVGRepo_iconCarrier">
<path fill="#7f0020" d="M352 23v18h-78v197h197v-78h18v192h-18v-78H274v197h78v18H160v-18h78V274H41v78H23V160h18v78h197V41h-78V23zm41 41v55h55v18h-55v55h-18v-55h-55v-18h55V64zm-256 0v55h55v18h-55v55h-18v-55H64v-18h55V64zm256 256v55h55v18h-55v55h-18v-55h-55v-18h55v-55zm-256 0v55h55v18h-55v55h-18v-55H64v-18h55v-55z"/>
</g>
</svg>